FFmpeg version SVN-r25716, Copyright (c) 2000-2010 the FFmpeg developers  built on Nov 10 2010 12:23:18 with gcc 4.1.2 20080704 (Red Hat 4.1.2-48)  configuration: --enable-libmp3lame --enable-shared --disable-mmx --arch=x86_64  libavutil     50.33. 0 / 50.33. 0  libavcore      0.12. 1 /  0.12. 1  libavcodec    52.94. 4 / 52.94. 4  libavformat   52.84. 0 / 52.84. 0  libavdevice   52. 2. 2 / 52. 2. 2  libavfilter    1.59. 0 /  1.59. 0  libswscale     0.12. 0 /  0.12. 0Seems stream 0 codec frame rate differs from container frame rate: 1200.00 (1200/1) -> 7.00 (7/1)Input #0, mov,mp4,m4a,3gp,3g2,mj2, from '/RAID10/data/converted_video_files/11993.mov':  Metadata:    major_brand     : qt      minor_version   : 537199360    compatible_brands: qt    Duration: 00:02:00.85, start: 0.000000, bitrate: 413 kb/s    Stream #0.0(eng): Video: h264, yuv420p, 268x242, 412 kb/s, 7 fps, 7 tbr, 600 tbn, 1200 tbc[buffer @ 0x16d3b330] w:268 h:242 pixfmt:yuv420pOutput #0, flv, to '/RAID10/data/converted_video_files/11993.flv':  Metadata:    encoder         : Lavf52.84.0    Stream #0.0(eng): Video: flv, yuv420p, 268x242, q=2-31, 600 kb/s, 1k tbn, 24 tbcStream mapping:  Stream #0.0 -> #0.0Press [q] to stop encodingframe=    5 fps=  0 q=2.0 size=     103kB time=0.62 bitrate=1348.4kbits/s    frame=   19 fps= 17 q=3.7 size=     258kB time=2.62 bitrate= 804.1kbits/s    frame=   46 fps= 28 q=3.4 size=     445kB time=6.46 bitrate= 564.0kbits/s    frame=   73 fps= 33 q=2.6 size=     680kB time=10.33 bitrate= 538.7kbits/s    frame=  110 fps= 40 q=2.7 size=     971kB time=15.62 bitrate= 509.3kbits/s    frame=  147 fps= 45 q=2.6 size=    1309kB time=20.92 bitrate= 512.8kbits/s    frame=  189 fps= 50 q=2.4 size=    1727kB time=26.92 bitrate= 525.6kbits/s    frame=  234 fps= 54 q=2.5 size=    2136kB time=33.33 bitrate= 525.0kbits/s    frame=  277 fps= 57 q=1.6 size=    2556kB time=39.46 bitrate= 530.7kbits/s    frame=  323 fps= 60 q=2.3 size=    3010kB time=46.04 bitrate= 535.5kbits/s    frame=  368 fps= 62 q=2.6 size=    3421kB time=52.46 bitrate= 534.2kbits/s    frame=  412 fps= 62 q=2.1 size=    3836kB time=58.75 bitrate= 534.9kbits/s    frame=  454 fps= 63 q=2.3 size=    4262kB time=64.75 bitrate= 539.2kbits/s    frame=  499 fps= 65 q=2.4 size=    4669kB time=71.17 bitrate= 537.4kbits/s    frame=  546 fps= 66 q=2.0 size=    5109kB time=77.92 bitrate= 537.1kbits/s    frame=  596 fps= 68 q=2.0 size=    5588kB time=85.04 bitrate= 538.3kbits/s    frame=  647 fps= 70 q=2.0 size=    6044kB time=92.33 bitrate= 536.3kbits/s    frame=  695 fps= 70 q=2.1 size=    6553kB time=99.17 bitrate= 541.3kbits/s    frame=  745 fps= 72 q=1.6 size=    7081kB time=106.33 bitrate= 545.5kbits/s    frame=  809 fps= 75 q=2.0 size=    7549kB time=115.46 bitrate= 535.6kbits/s    frame=  846 fps= 77 q=2.0 Lsize=    7549kB time=120.75 bitrate= 512.2kbits/s    video:7536kB audio:0kB global headers:0kB muxing overhead 0.178136%